<svg xmlns="http://www.w3.org/2000/svg" viewBox="0 0 1190.55 1471.12"><g id="Circle"><circle cx="595.28" cy="595.28" r="595.28" style="fill:#ffdc14"/></g><g id="Type"><path d="M828.73,653.56c-47.25,0-85,37.07-85,85.3s37.08,85.3,84.32,85.3c25.25,0,46.23-10.81,60.34-28.18v13.79c0,37.44-23.63,61.07-60.15,61.07-28.85,0-44.81-9.51-58-28.23l-20.87,16.57c16.88,21.79,40.51,34.68,79.18,34.68,49.71,0,84.8-33.14,84.8-85v-70C913.37,690.27,876,653.56,828.73,653.56Zm0,147.63c-33.47,0-59.38-27.88-59.38-62.33s25.91-62.33,59.38-62.33,59.71,27.88,59.71,62.33S862.19,801.19,828.73,801.19Z" transform="translate(-1.5 -2.24)" style="fill:#46413e"/><path d="M1065.22,656.79l-52.11,126.65L958.26,656.79h-27l68.48,155.74-3.64,7.88c-12.12,27-20.3,34.24-37.57,34.24-10.61,0-17.27-4.24-23.64-11.21l-10.84,24.41a61.22,61.22,0,0,0,34.78,10.43c28.48,0,43.33-13.94,59.08-50.6l74.24-170.89Z" transform="translate(-1.5 -2.24)" style="fill:#46413e"/><path d="M646.4,736.49c0-49.53,30.17-79.7,78.06-79.7h12.13v24.92H724.13c-31.82,0-52.48,21.32-52.15,54.78v84.29H646.4Z" transform="translate(-1.5 -2.24)" style="fill:#46413e"/><path d="M282,727.94c0-43.62,30.17-74.45,73.14-74.45s74.45,30.17,74.45,74.45v92.82H404V728.27c0-29.85-20-50.19-48.87-50.19-29.19,0-47.89,20.34-47.56,49.2v93.48H282Z" transform="translate(-1.5 -2.24)" style="fill:#46413e"/><path d="M364.58,515.7v13.83c0,37.44-23.63,61.07-60.15,61.07-28.85,0-44.8-9.51-58-28.23l-20.87,16.57c16.88,21.79,40.51,34.68,79.18,34.68,49.71,0,84.81-33.15,84.81-85v-70c0-48.59-37.41-85.3-84.65-85.3s-85,37.08-85,85.3,37.07,85.31,84.32,85.31c25.26,0,46.25-10.83,60.36-28.22M683.74,521c-33.47,0-59.38-27.89-59.38-62.34s25.91-62.33,59.38-62.33,59.71,27.88,59.71,62.33S717.2,521,683.74,521m0,23c47.24,0,85.3-37.08,85.3-85.31s-38.06-85.3-85.3-85.3-85,37.08-85,85.3,37.73,85.31,85,85.31M495.07,521c-33.46,0-59.38-27.89-59.38-62.34s25.92-62.33,59.38-62.33,59.71,27.88,59.71,62.33S528.53,521,495.07,521m0,23c47.25,0,85.3-37.08,85.3-85.31s-38-85.3-85.3-85.3-85,37.08-85,85.3,37.73,85.31,85,85.31M304.9,521c-33.46,0-59.38-27.89-59.38-62.34s25.92-62.33,59.38-62.33,59.71,27.88,59.71,62.33S338.37,521,304.9,521" transform="translate(-1.5 -2.24)" style="fill:#46413e"/><path d="M786.72,458.5c0-48.21,36.74-85.28,84-85.28,24.92,0,45.59,10.5,59.69,27.55v-99.7H956V458.5c0,48.21-37.06,85.28-84.29,85.28S786.72,506.71,786.72,458.5Zm144.64,0c0-34.44-26.23-62.32-59.69-62.32s-59.36,27.88-59.36,62.32,25.91,62.32,59.36,62.32S931.36,492.94,931.36,458.5Z" transform="translate(-1.5 -2.24)" style="fill:#46413e"/><path d="M88.82,740.1c0-49.21,35.76-86.61,85-86.61,47.24,0,84,32.47,84,82.67V747H113.43c3.28,32.48,28.87,54.46,61.68,54.46,26.57,0,45.27-13.78,55.44-33.8l22,10.83c-15.09,28.55-40.68,45.6-77.42,45.6C122.94,824.08,88.82,788.33,88.82,740.1Zm25.92-16.41H231.86c-4.59-29.52-26.24-47.57-58.06-47.57C144.27,676.12,121.3,696.14,114.74,723.69Z" transform="translate(-1.5 -2.24)" style="fill:#46413e"/><path d="M453.74,740.1c0-49.21,35.76-86.61,85-86.61,47.25,0,84,32.47,84,82.67V747H478.35c3.28,32.48,28.87,54.46,61.68,54.46,26.57,0,45.27-13.78,55.44-33.8l22,10.83c-15.09,28.55-40.68,45.6-77.42,45.6C487.86,824.08,453.74,788.33,453.74,740.1Zm25.92-16.41H596.78c-4.59-29.52-26.24-47.57-58.07-47.57C509.19,676.12,486.22,696.14,479.66,723.69Z" transform="translate(-1.5 -2.24)" style="fill:#46413e"/><path d="M828.73,653.56c-47.25,0-85,37.07-85,85.3s37.08,85.3,84.32,85.3c25.25,0,46.23-10.81,60.34-28.18v13.79c0,37.44-23.63,61.07-60.15,61.07-28.85,0-44.81-9.51-58-28.23l-20.87,16.57c16.88,21.79,40.51,34.68,79.18,34.68,49.71,0,84.8-33.14,84.8-85v-70C913.37,690.27,876,653.56,828.73,653.56Zm0,147.63c-33.47,0-59.38-27.88-59.38-62.33s25.91-62.33,59.38-62.33,59.71,27.88,59.71,62.33S862.19,801.19,828.73,801.19Z" transform="translate(-1.5 -2.24)" style="fill:#46413e"/><path d="M1065.22,656.79l-52.11,126.65L958.26,656.79h-27l68.48,155.74-3.64,7.88c-12.12,27-20.3,34.24-37.57,34.24-10.61,0-17.27-4.24-23.64-11.21l-10.84,24.41a61.22,61.22,0,0,0,34.78,10.43c28.48,0,43.33-13.94,59.08-50.6l74.24-170.89Z" transform="translate(-1.5 -2.24)" style="fill:#46413e"/><path d="M646.4,736.49c0-49.53,30.17-79.7,78.06-79.7h12.13v24.92H724.13c-31.82,0-52.48,21.32-52.15,54.78v84.29H646.4Z" transform="translate(-1.5 -2.24)" style="fill:#46413e"/><path d="M282,727.94c0-43.62,30.17-74.45,73.14-74.45s74.45,30.17,74.45,74.45v92.82H404V728.27c0-29.85-20-50.19-48.87-50.19-29.19,0-47.89,20.34-47.56,49.2v93.48H282Z" transform="translate(-1.5 -2.24)" style="fill:#46413e"/><path d="M364.58,515.7v13.83c0,37.44-23.63,61.07-60.15,61.07-28.85,0-44.8-9.51-58-28.23l-20.87,16.57c16.88,21.79,40.51,34.68,79.18,34.68,49.71,0,84.81-33.15,84.81-85v-70c0-48.59-37.41-85.3-84.65-85.3s-85,37.08-85,85.3,37.07,85.31,84.32,85.31c25.26,0,46.25-10.83,60.36-28.22M683.74,521c-33.47,0-59.38-27.89-59.38-62.34s25.91-62.33,59.38-62.33,59.71,27.88,59.71,62.33S717.2,521,683.74,521m0,23c47.24,0,85.3-37.08,85.3-85.31s-38.06-85.3-85.3-85.3-85,37.08-85,85.3,37.73,85.31,85,85.31M495.07,521c-33.46,0-59.38-27.89-59.38-62.34s25.92-62.33,59.38-62.33,59.71,27.88,59.71,62.33S528.53,521,495.07,521m0,23c47.25,0,85.3-37.08,85.3-85.31s-38-85.3-85.3-85.3-85,37.08-85,85.3,37.73,85.31,85,85.31M304.9,521c-33.46,0-59.38-27.89-59.38-62.34s25.92-62.33,59.38-62.33,59.71,27.88,59.71,62.33S338.37,521,304.9,521" transform="translate(-1.5 -2.24)" style="fill:#46413e"/><path d="M786.72,458.5c0-48.21,36.74-85.28,84-85.28,24.92,0,45.59,10.5,59.69,27.55v-99.7H956V458.5c0,48.21-37.06,85.28-84.29,85.28S786.72,506.71,786.72,458.5Zm144.64,0c0-34.44-26.23-62.32-59.69-62.32s-59.36,27.88-59.36,62.32,25.91,62.32,59.36,62.32S931.36,492.94,931.36,458.5Z" transform="translate(-1.5 -2.24)" style="fill:#46413e"/><path d="M88.82,740.1c0-49.21,35.76-86.61,85-86.61,47.24,0,84,32.47,84,82.67V747H113.43c3.28,32.48,28.87,54.46,61.68,54.46,26.57,0,45.27-13.78,55.44-33.8l22,10.83c-15.09,28.55-40.68,45.6-77.42,45.6C122.94,824.08,88.82,788.33,88.82,740.1Zm25.92-16.41H231.86c-4.59-29.52-26.24-47.57-58.06-47.57C144.27,676.12,121.3,696.14,114.74,723.69Z" transform="translate(-1.5 -2.24)" style="fill:#46413e"/><path d="M453.74,740.1c0-49.21,35.76-86.61,85-86.61,47.25,0,84,32.47,84,82.67V747H478.35c3.28,32.48,28.87,54.46,61.68,54.46,26.57,0,45.27-13.78,55.44-33.8l22,10.83c-15.09,28.55-40.68,45.6-77.42,45.6C487.86,824.08,453.74,788.33,453.74,740.1Zm25.92-16.41H596.78c-4.59-29.52-26.24-47.57-58.07-47.57C509.19,676.12,486.22,696.14,479.66,723.69Z" transform="translate(-1.5 -2.24)" style="fill:#46413e"/><path d="M22.48,1421.1q-12-10.86-12-30.73H25.06v1.1q0,12.52,8.28,19.69,8.08,7.36,20.61,7.36,13.06,0,20.61-7,7.35-7,7.36-18.22,0-13.43-9.76-19.14a113.75,113.75,0,0,0-22.26-9.93,183.42,183.42,0,0,1-17.3-7.36,37.52,37.52,0,0,1-13.43-11.23,29.64,29.64,0,0,1-4.23-8.65,37.27,37.27,0,0,1-1.47-11q0-16.37,11.4-25.94,11.6-9.57,29.26-9.57,19.14,0,30.36,10.12,11,10.13,10.86,27.79H81v-1.29q0-10.68-7-17.12-7.17-6.62-19.68-6.62-11.59,0-18.77,6.07-7.36,6.07-7.36,16.56,0,11.6,8.83,16.56a136.69,136.69,0,0,0,22.08,9.76,134.5,134.5,0,0,1,18,8.09,39.61,39.61,0,0,1,14,12.15,29.42,29.42,0,0,1,4.41,9,39.33,39.33,0,0,1-9.75,39q-11.41,11.24-31.28,11.23Q34.45,1431.77,22.48,1421.1Z" transform="translate(-1.5 -2.24)" style="fill:#46413e"/><path d="M118.72,1376.57q0-18.78,11.59-30.73,11.59-12.15,30.18-12.15a41.2,41.2,0,0,1,20.79,5.15,36.57,36.57,0,0,1,14.17,13.8,35.68,35.68,0,0,1,13.8-13.8q8.83-5.14,20.8-5.15,18.39,0,30.54,12,12,11.77,12,30.92v53.36H257.83v-53.18q0-12.87-7.73-20.79-7.72-8.1-20-8.1-12.7,0-19.88,7.91-7.35,7.92-7.36,20.43.18,40.29.19,53.73H188.46v-53.18q0-12.87-7.73-20.79-7.72-8.1-20.24-8.1t-19.87,7.91q-7.37,7.92-7.18,20.43v53.73H118.72Z" transform="translate(-1.5 -2.24)" style="fill:#46413e"/><path d="M330.15,1429.93a44.92,44.92,0,0,1-12.15-5.34,48.41,48.41,0,0,1-22.81-41.77,47.62,47.62,0,0,1,6.44-24.47,46.3,46.3,0,0,1,16.74-17.3,44.9,44.9,0,0,1,12.15-5.33,49.17,49.17,0,0,1,13.61-1.84,48.39,48.39,0,0,1,41.22,22.81,59.82,59.82,0,0,1,5.34,12.15,52.26,52.26,0,0,1,1.84,14v47.11H378.18v-14.17a42.41,42.41,0,0,1-14.91,11.78,43.83,43.83,0,0,1-19.5,4.23A49.57,49.57,0,0,1,330.15,1429.93Zm38.27-21.71a37.41,37.41,0,0,0,0-50.79,32.18,32.18,0,0,0-24.29-10.49,31.83,31.83,0,0,0-24.29,10.49,37.44,37.44,0,0,0,0,50.79,31.83,31.83,0,0,0,24.29,10.49A32.18,32.18,0,0,0,368.42,1408.22Z" transform="translate(-1.5 -2.24)" style="fill:#46413e"/><path d="M416.82,1381.53q0-21.33,12-33.67,12.15-12.15,32.75-12.14h7v14.35h-7.18q-13.62,0-21.9,8.46-8.1,8.65-8.09,23v48.4H416.82Z" transform="translate(-1.5 -2.24)" style="fill:#46413e"/><path d="M503.12,1417.6Q491,1405.45,491,1384.11v-79.86H505.7v31.47H537v13.06H505.7v35.51q0,14.36,8.09,22.82,8.1,8.28,21.9,8.28h3.86v14.54h-3.68Q515.26,1429.93,503.12,1417.6Z" transform="translate(-1.5 -2.24)" style="fill:#46413e"/><path d="M621.62,1417.6q-13.07-14.16-13.06-34,0-21.16,13.8-35.52,13.8-14.16,35-14.16,20.43,0,34.41,12.88t14,34.59v5.89H622.54A34.51,34.51,0,0,0,633,1409.69q9.39,9.19,24.11,9.2,11.77,0,20.05-5.52a29.37,29.37,0,0,0,11.23-15.09h15.64A47.79,47.79,0,0,1,687,1422.75q-12,9-30,9Q634.69,1431.77,621.62,1417.6Zm14-63.11a34.5,34.5,0,0,0-12,19.5h67.16q-2.2-12.69-11-19.87-8.65-7.36-22.45-7.36A32.21,32.21,0,0,0,635.61,1354.49Z" transform="translate(-1.5 -2.24)" style="fill:#46413e"/><path d="M756.14,1382.09l-35.33-46.37H738.1q20.43,26.87,27.24,35.88,20.6-26.86,27.41-35.88h17.48q-27,34.59-35.88,46.18,28,36.07,37.36,48H793.86q-21.52-27.78-28.89-37-21,27.8-28,37H719.15Q746.93,1394.05,756.14,1382.09Z" transform="translate(-1.5 -2.24)" style="fill:#46413e"/><path d="M828.08,1382.82a48.48,48.48,0,0,1,22.82-41.77,55.47,55.47,0,0,1,12-5.33,50.56,50.56,0,0,1,13.62-1.84,51.23,51.23,0,0,1,13.8,1.84A47.63,47.63,0,0,1,919,1358.35a50.34,50.34,0,0,1,.18,49,48.86,48.86,0,0,1-16.38,17.48,52.77,52.77,0,0,1-12.14,5.15,45.16,45.16,0,0,1-13.62,2,43.77,43.77,0,0,1-19.5-4.23,44.4,44.4,0,0,1-14.72-11.59v57.23H828.08Zm72.69,25.4a37.18,37.18,0,0,0,0-50.61,31.82,31.82,0,0,0-24.29-10.49,32.18,32.18,0,0,0-24.29,10.49,37.18,37.18,0,0,0,0,50.61,32.18,32.18,0,0,0,24.29,10.49A31.82,31.82,0,0,0,900.77,1408.22Z" transform="translate(-1.5 -2.24)" style="fill:#46413e"/><path d="M978.42,1429.93a49,49,0,0,1,0-94.21,50.51,50.51,0,0,1,13.62-1.84,47.74,47.74,0,0,1,47.1,35.14,47.92,47.92,0,0,1,0,27.6,47.79,47.79,0,0,1-5.33,12.33A49.09,49.09,0,0,1,992,1431.77,50.91,50.91,0,0,1,978.42,1429.93Zm38.09-21.71a37.41,37.41,0,0,0,0-50.79A32.38,32.38,0,0,0,992,1346.94a31.62,31.62,0,0,0-24.11,10.49,37.44,37.44,0,0,0,0,50.79A31.62,31.62,0,0,0,992,1418.71,32.38,32.38,0,0,0,1016.51,1408.22Z" transform="translate(-1.5 -2.24)" style="fill:#46413e"/><path d="M1062.7,1381.53q0-21.33,12-33.67,12.15-12.15,32.75-12.14h7v14.35h-7.18q-13.62,0-21.9,8.46-8.1,8.65-8.09,23v48.4H1062.7Z" transform="translate(-1.5 -2.24)" style="fill:#46413e"/><path d="M1149,1417.6q-12.15-12.15-12.14-33.49v-79.86h14.72v31.47h31.28v13.06h-31.28v35.51q0,14.36,8.09,22.82,8.1,8.28,21.9,8.28h3.86v14.54h-3.68Q1161.14,1429.93,1149,1417.6Z" transform="translate(-1.5 -2.24)" style="fill:#46413e"/></g></svg>